# xmcd CD database file
#
# Track frame offsets:
#	150
#	19285
#	37997
#	59165
#	79851
#	99098
#	127558
#	139536
#	162425
#	175148
#
# Disc length: 2652 seconds
#
# Revision: 1
# Processed by: cddbd v1.4PL0 Copyright (c) Steve Scherf et al.
# Submitted via: CDex 1.50Beta6
#
DISCID=760a5a0a
DTITLE=Benoît Blue Boy - Lent ou rapide
DYEAR=1997
DGENRE=Blues
TTITLE0=Mets tes gants
TTITLE1=Barge et sans loi
TTITLE2=On peut plus en trouver
TTITLE3=C'est pas l'cas
TTITLE4=Un petit bébé encore
TTITLE5=Un endroit cool cool
TTITLE6=Cricketer's le retour
TTITLE7=Bon à rien
TTITLE8=Du fil et une aiguille
TTITLE9=Trop difficile
EXTD=YEAR: 1997
EXTT0=
EXTT1=
EXTT2=
EXTT3=
EXTT4=
EXTT5=
EXTT6=
EXTT7=
EXTT8=
EXTT9=
PLAYORDER=
